<svg width="42" height="34" viewBox="0 0 42 34" fill="none" xmlns="http://www.w3.org/2000/svg">
<path fill-rule="evenodd" clip-rule="evenodd" d="M41.0813 10.4461C41.0813 10.4142 41.0549 10.3994 41.0496 10.368C41.0418 10.2991 41.0549 10.2289 41.026 10.1629L36.9067 0.466049C36.7934 0.201413 36.5303 0.0264893 36.2382 0.0264893H5.83961C5.54736 0.0264893 5.28429 0.201413 5.17094 0.466049L1.04898 10.1629C1.02003 10.2289 1.03318 10.2991 1.02267 10.368C1.02003 10.3994 0.993713 10.4142 0.993713 10.4461C0.993713 10.4604 1.0096 10.4719 1.0096 10.4882C1.02003 10.6463 1.06477 10.7972 1.17279 10.9221L20.4927 32.7548C20.5084 32.7741 20.5375 32.7661 20.5532 32.7856C20.6058 32.8318 20.648 32.8738 20.7112 32.9076C20.7243 32.9132 20.7269 32.936 20.7453 32.9416C20.84 32.9816 20.9401 33.002 21.0349 33.002C21.1322 33.002 21.2323 32.9816 21.3271 32.9416C21.3454 32.936 21.3481 32.9132 21.3613 32.9046C21.4244 32.8738 21.4665 32.8318 21.5165 32.7856C21.535 32.7661 21.564 32.7741 21.5798 32.7548L40.8996 10.9221C41.0076 10.7972 41.0549 10.6463 41.0655 10.4882C41.0655 10.4719 41.0813 10.4604 41.0813 10.4461ZM25.9649 1.46948L29.5183 9.72511H12.5568L16.1128 1.46948H25.9649ZM29.5077 11.1672L21.0349 30.4745L12.5671 11.1672H29.5077ZM10.9826 11.1672L18.5132 28.3383L3.32052 11.1672H10.9826ZM31.0924 11.1672H38.7517L23.559 28.3353L31.0924 11.1672ZM39.265 9.72511H31.0949L27.5415 1.46948H35.7564L39.265 9.72511ZM6.31864 1.46948H14.5388L10.9826 9.72511H2.80981L6.31864 1.46948Z" fill="url(#paint0_linear_0_157)"/>
<path fill-rule="evenodd" clip-rule="evenodd" d="M41.0813 10.4461C41.0813 10.4142 41.0549 10.3994 41.0496 10.368C41.0418 10.2991 41.0549 10.2289 41.026 10.1629L36.9067 0.466049C36.7934 0.201413 36.5303 0.0264893 36.2382 0.0264893H5.83961C5.54736 0.0264893 5.28429 0.201413 5.17094 0.466049L1.04898 10.1629C1.02003 10.2289 1.03318 10.2991 1.02267 10.368C1.02003 10.3994 0.993713 10.4142 0.993713 10.4461C0.993713 10.4604 1.0096 10.4719 1.0096 10.4882C1.02003 10.6463 1.06477 10.7972 1.17279 10.9221L20.4927 32.7548C20.5084 32.7741 20.5375 32.7661 20.5532 32.7856C20.6058 32.8318 20.648 32.8738 20.7112 32.9076C20.7243 32.9132 20.7269 32.936 20.7453 32.9416C20.84 32.9816 20.9401 33.002 21.0349 33.002C21.1322 33.002 21.2323 32.9816 21.3271 32.9416C21.3454 32.936 21.3481 32.9132 21.3613 32.9046C21.4244 32.8738 21.4665 32.8318 21.5165 32.7856C21.535 32.7661 21.564 32.7741 21.5798 32.7548L40.8996 10.9221C41.0076 10.7972 41.0549 10.6463 41.0655 10.4882C41.0655 10.4719 41.0813 10.4604 41.0813 10.4461ZM25.9649 1.46948L29.5183 9.72511H12.5568L16.1128 1.46948H25.9649ZM29.5077 11.1672L21.0349 30.4745L12.5671 11.1672H29.5077ZM10.9826 11.1672L18.5132 28.3383L3.32052 11.1672H10.9826ZM31.0924 11.1672H38.7517L23.559 28.3353L31.0924 11.1672ZM39.265 9.72511H31.0949L27.5415 1.46948H35.7564L39.265 9.72511ZM6.31864 1.46948H14.5388L10.9826 9.72511H2.80981L6.31864 1.46948Z" fill="#FF3B4A"/>
<defs>
<linearGradient id="paint0_linear_0_157" x1="17.3932" y1="-13.4635" x2="-8.10648" y2="24.4246" gradientUnits="userSpaceOnUse">
<stop stop-color="white"/>
<stop offset="1" stop-color="white"/>
</linearGradient>
</defs>
</svg>
